<svg xmlns="http://www.w3.org/2000/svg" viewBox="0 0 20 20"><defs><style>.cls-1{fill:#c50000;}.cls-2{fill:#fff;}</style></defs><g id="圖層_3" data-name="圖層 3"><path class="cls-1" d="M15.75,19.8H4.33a1,1,0,0,1-.81-.9c-.17-1.67-.33-3.35-.49-5L2.4,7.23a.93.93,0,0,1,1-1.11H16.29c1.3,0,1.54.31,1.39,1.62-.21,1.83-.37,3.67-.54,5.51s-.37,3.62-.52,5.44A1.09,1.09,0,0,1,15.75,19.8ZM7.4,15.16h0l-.09-1.73c-.06-1.11-.11-2.21-.18-3.32a.75.75,0,0,0-.84-.78c-.47,0-.71.33-.69.86.07,1.32.13,2.64.2,4,0,.6.06,1.19.12,1.78a.72.72,0,0,0,.81.67.72.72,0,0,0,.69-.79C7.43,15.59,7.41,15.38,7.4,15.16Zm7.12-4.81h0v-.12c0-.57-.24-.88-.74-.9s-.77.29-.79.86l0,.44c-.09,1.71-.19,3.41-.28,5.12a.76.76,0,1,0,1.52.05C14.32,14,14.42,12.17,14.52,10.35ZM10.74,13c0-.93,0-1.86,0-2.79,0-.55-.28-.86-.74-.87a.76.76,0,0,0-.78.84q0,2.79,0,5.58a.78.78,0,0,0,.77.85.77.77,0,0,0,.75-.87C10.75,14.82,10.74,13.9,10.74,13Z"/><path class="cls-1" d="M11.78.2a1.15,1.15,0,0,1,.73,1.38l.47,0H17.4c.73,0,1,.24,1,1V3.91a.4.4,0,0,1-.44.45H2.41c-.74,0-.77,0-.77-.78V2.5c0-.64.26-.89.92-.89h5C7.49,1,7.62.42,8.3.2Z"/><path class="cls-2" d="M7.4,15.16c0,.22,0,.43,0,.65a.72.72,0,0,1-.69.79.72.72,0,0,1-.81-.67c-.06-.59-.09-1.18-.12-1.78-.07-1.32-.13-2.64-.2-4,0-.53.22-.82.69-.86a.75.75,0,0,1,.84.78c.07,1.11.12,2.21.18,3.32l.09,1.73Z"/><path class="cls-2" d="M14.52,10.35c-.1,1.82-.2,3.63-.31,5.45a.76.76,0,1,1-1.52-.05c.09-1.71.19-3.41.28-5.12l0-.44c0-.57.3-.87.79-.86s.76.33.74.9v.12Z"/><path class="cls-2" d="M10.74,13c0,.91,0,1.83,0,2.74a.77.77,0,0,1-.75.87.78.78,0,0,1-.77-.85q0-2.79,0-5.58A.76.76,0,0,1,10,9.33c.46,0,.74.32.74.87C10.75,11.13,10.74,12.06,10.74,13Z"/></g></svg>