<svg xmlns="http://www.w3.org/2000/svg" viewBox="0 0 20 20"><defs><style>.cls-1{fill:#fff;}</style></defs><g id="圖層_3" data-name="圖層 3"><path class="cls-1" d="M10.53,19.85H9.47l-.15,0c-.57-.09-1.15-.14-1.72-.28a9.54,9.54,0,0,1-4.36-2.4A9.66,9.66,0,0,1,.6,12.87a9.73,9.73,0,0,1,0-5.63A9.58,9.58,0,0,1,3.79,2.37,9.68,9.68,0,0,1,10.25.15a9.52,9.52,0,0,1,4.49,1.21,9.85,9.85,0,0,1,5,6.78l.15,1v1.77a.8.8,0,0,0,0,.15,9.63,9.63,0,0,1-1.52,4.3,9.71,9.71,0,0,1-6.71,4.39C11.23,19.78,10.88,19.81,10.53,19.85ZM10,18.47A8.47,8.47,0,1,0,1.55,10,8.49,8.49,0,0,0,10,18.47Z"/><path class="cls-1" d="M9.06,9.06V4.8A.9.9,0,0,1,9.55,4a.88.88,0,0,1,.95,0,.92.92,0,0,1,.44.87V9.06h4.27a.88.88,0,0,1,.87.57.9.9,0,0,1-.19,1,1,1,0,0,1-.77.29H10.94v.26c0,1.33,0,2.66,0,4a.94.94,0,1,1-1.88,0V10.94H4.79a.87.87,0,0,1-.87-.57.9.9,0,0,1,.19-1,1,1,0,0,1,.75-.28h4.2Z"/></g></svg>