<svg xmlns="http://www.w3.org/2000/svg" xmlns:xlink="http://www.w3.org/1999/xlink" viewBox="0 0 20 20"><defs><style>.cls-1{fill:url(#未命名漸層_11);}.cls-2{fill:url(#未命名漸層_11-2);}</style><linearGradient id="未命名漸層_11" x1="0.29" y1="10" x2="19.71" y2="10" gradientUnits="userSpaceOnUse"><stop offset="0" stop-color="#70eeee"/><stop offset="0.23" stop-color="#52bbf1"/><stop offset="0.48" stop-color="#3588f5"/><stop offset="0.71" stop-color="#1f62f7"/><stop offset="0.89" stop-color="#124bf8"/><stop offset="1" stop-color="#0d43f9"/></linearGradient><linearGradient id="未命名漸層_11-2" x1="3.91" x2="16.09" xlink:href="#未命名漸層_11"/></defs><g id="圖層_3" data-name="圖層 3"><path class="cls-1" d="M10.52,19.72h-1l-.15,0c-.57-.09-1.14-.14-1.69-.27a9.36,9.36,0,0,1-4.31-2.37A9.44,9.44,0,0,1,.72,12.83a9.62,9.62,0,0,1,0-5.55A9.49,9.49,0,0,1,3.87,2.47,9.5,9.5,0,0,1,10.25.28a9.44,9.44,0,0,1,4.43,1.19,9.61,9.61,0,0,1,3.8,3.76,9.14,9.14,0,0,1,1.08,2.94c.06.31.1.63.15.95v1.75l0,.15a9.37,9.37,0,0,1-1.5,4.24,9.57,9.57,0,0,1-6.62,4.33C11.22,19.65,10.87,19.68,10.52,19.72ZM10,18.36A8.36,8.36,0,1,0,1.66,10,8.38,8.38,0,0,0,10,18.36Z"/><path class="cls-2" d="M9.07,9.07V4.87A.88.88,0,0,1,9.55,4a.87.87,0,0,1,.94,0,.93.93,0,0,1,.44.86V9.07h4.21a.87.87,0,0,1,.86.57.88.88,0,0,1-.18,1,1,1,0,0,1-.77.28H10.93v.26c0,1.32,0,2.63,0,4a.93.93,0,1,1-1.86,0V10.93H4.86A.86.86,0,0,1,4,10.37a.9.9,0,0,1,.18-1,1,1,0,0,1,.75-.28H9.07Z"/></g></svg>