<svg xmlns="http://www.w3.org/2000/svg" viewBox="0 0 20 20"><g id="圖層_3" data-name="圖層 3"><path d="M9.35,8.33H1.55c-.21,0-.21,0-.21.21a.75.75,0,0,1,0,.15c0,2.46,0,4.92,0,7.37a.89.89,0,0,0,.53.87,1.06,1.06,0,0,0,.4.09H8.82a.59.59,0,0,1,.54.38.57.57,0,0,1-.25.68.7.7,0,0,1-.35.09H2.31A2.05,2.05,0,0,1,.7,17.48a2.09,2.09,0,0,1-.48-1,4,4,0,0,1-.06-1c0-3.72,0-7.45,0-11.18A2,2,0,0,1,1.41,2.41a1.83,1.83,0,0,1,.77-.16H3.75c.15,0,.16,0,.16-.16v-.9A.57.57,0,0,1,4.35.63a.56.56,0,0,1,.7.53c0,.31,0,.62,0,.92s0,.17.16.17H12.3c.19,0,.2,0,.2-.21s0-.57,0-.86a.57.57,0,0,1,.35-.53A.55.55,0,0,1,13.5.8a.67.67,0,0,1,.13.41v.88c0,.13,0,.16.16.16h1.52a2,2,0,0,1,1.94,1.42,1.69,1.69,0,0,1,.09.49V8.21c0,.09,0,.12-.12.12H9.35Z"/><path d="M14.92,9.64A4.76,4.76,0,0,1,18.28,11a5,5,0,0,1,1.56,3.51A4.91,4.91,0,0,1,14.9,19.4a4.88,4.88,0,0,1,0-9.76Zm3.74,4.86a3.73,3.73,0,1,0-3.76,3.75A3.72,3.72,0,0,0,18.66,14.5Z"/><path d="M5.42,15.06h-2a.58.58,0,0,1-.56-.42A.54.54,0,0,1,3.19,14a.75.75,0,0,1,.26-.05h4A.57.57,0,0,1,8,14.5a.56.56,0,0,1-.55.56h-2Z"/><path d="M5.39,10.29h2a.55.55,0,0,1,.59.62.51.51,0,0,1-.45.48,1.62,1.62,0,0,1-.31,0H3.61a1.57,1.57,0,0,1-.44,0,.55.55,0,0,1-.36-.65.57.57,0,0,1,.56-.43h2Z"/><path d="M14.44,13.59c0-.4,0-.8,0-1.2a.42.42,0,0,1,.42-.46.44.44,0,0,1,.45.47v1.77c0,.19,0,.2.21.2h1.7a.44.44,0,0,1,.23.82.58.58,0,0,1-.26.05H14.9a.42.42,0,0,1-.46-.47c0-.39,0-.79,0-1.18Z"/></g></svg>