<svg xmlns="http://www.w3.org/2000/svg" viewBox="0 0 20 20"><defs><style>.cls-1{fill:#0070c0;}</style></defs><g id="圖層_3" data-name="圖層 3"><path class="cls-1" d="M5,4.14H6c.66,0,1,.34,1,.92a.9.9,0,0,1-1,1c-1.28,0-2.57,0-3.86,0a.92.92,0,0,1-1-1q0-1.9,0-3.81a.92.92,0,0,1,1-1,.93.93,0,0,1,1,1c0,.53,0,1.07,0,1.72l.52-.43A9.77,9.77,0,1,1,.25,10.86a6.58,6.58,0,0,1,0-.89A.91.91,0,0,1,1.14,9a.89.89,0,0,1,1,.9,8.1,8.1,0,0,0,1.53,4.68A7.82,7.82,0,1,0,11.56,2.34,7.58,7.58,0,0,0,5.09,3.9L4.92,4Z"/><path class="cls-1" d="M9,7.54C9,6.77,9,6,9,5.24s.35-1.09,1-1.09,1,.37,1,1.08c0,1.31,0,2.61,0,3.91a1.33,1.33,0,0,0,.33.8c.71.77,1.47,1.48,2.2,2.23a1,1,0,0,1,.08,1.46c-.42.42-.95.37-1.45-.12-1-.93-1.9-1.83-2.81-2.79A1.44,1.44,0,0,1,9,9.88C9,9.1,9,8.32,9,7.54Z"/></g></svg>