<svg xmlns="http://www.w3.org/2000/svg" xmlns:xlink="http://www.w3.org/1999/xlink" viewBox="0 0 20 20"><defs><style>.cls-1{fill:url(#未命名漸層_11);}.cls-2{fill:url(#未命名漸層_11-2);}</style><linearGradient id="未命名漸層_11" x1="0.37" y1="10" x2="19.63" y2="10" gradientUnits="userSpaceOnUse"><stop offset="0" stop-color="#70eeee"/><stop offset="0.23" stop-color="#52bbf1"/><stop offset="0.48" stop-color="#3588f5"/><stop offset="0.71" stop-color="#1f62f7"/><stop offset="0.89" stop-color="#124bf8"/><stop offset="1" stop-color="#0d43f9"/></linearGradient><linearGradient id="未命名漸層_11-2" x1="9.02" y1="9.04" x2="13.84" y2="9.04" xlink:href="#未命名漸層_11"/></defs><g id="圖層_3" data-name="圖層 3"><path class="cls-1" d="M5.06,4.23c.33,0,.67,0,1,0,.65,0,1,.34,1,.92a.9.9,0,0,1-1,1H2.3a.91.91,0,0,1-1-1q0-1.87,0-3.75a.91.91,0,0,1,.93-1,.92.92,0,0,1,1,1c0,.53,0,1.06,0,1.7l.52-.42a9.63,9.63,0,1,1-3.38,8.2,6.47,6.47,0,0,1,0-.88.89.89,0,0,1,.9-.92.87.87,0,0,1,1,.88,8.09,8.09,0,0,0,1.51,4.61A7.71,7.71,0,1,0,11.53,2.45,7.44,7.44,0,0,0,5.17,4L5,4.09Z"/><path class="cls-2" d="M9,7.57c0-.75,0-1.5,0-2.26s.35-1.08,1-1.08,1,.37,1,1.07c0,1.29,0,2.57,0,3.85a1.38,1.38,0,0,0,.32.8c.7.75,1.45,1.45,2.17,2.19a.93.93,0,0,1,.08,1.44c-.41.41-.93.37-1.44-.12-.92-.91-1.87-1.81-2.76-2.75A1.31,1.31,0,0,1,9,9.88c0-.77,0-1.54,0-2.31Z"/></g></svg>