<svg xmlns="http://www.w3.org/2000/svg" xmlns:xlink="http://www.w3.org/1999/xlink" viewBox="0 0 20 20"><defs><style>.cls-1{fill:none;stroke-miterlimit:10;stroke-width:1.37px;stroke:url(#未命名漸層_11);}.cls-2{fill:url(#未命名漸層_11-2);}.cls-3{fill:url(#未命名漸層_11-3);}</style><linearGradient id="未命名漸層_11" x1="0.35" y1="10" x2="19.65" y2="10" gradientUnits="userSpaceOnUse"><stop offset="0" stop-color="#70eeee"/><stop offset="0.23" stop-color="#52bbf1"/><stop offset="0.48" stop-color="#3588f5"/><stop offset="0.71" stop-color="#1f62f7"/><stop offset="0.89" stop-color="#124bf8"/><stop offset="1" stop-color="#0d43f9"/></linearGradient><linearGradient id="未命名漸層_11-2" x1="7.87" y1="11.91" x2="11.96" y2="11.91" xlink:href="#未命名漸層_11"/><linearGradient id="未命名漸層_11-3" x1="9.45" y1="5.62" x2="12.12" y2="5.62" xlink:href="#未命名漸層_11"/></defs><g id="圖層_2" data-name="圖層 2"><path class="cls-1" d="M19,10a9,9,0,1,1-9-9A9,9,0,0,1,19,10Z"/><path class="cls-2" d="M9.34,15.71A1.4,1.4,0,0,1,7.9,14c.12-.65.3-1.3.47-2L9,9.48c.1-.41,0-.56-.46-.53L8.21,9a.24.24,0,0,1-.28-.22.23.23,0,0,1,.21-.3l.91-.13,2-.22c.29,0,.43.12.36.41-.37,1.42-.74,2.84-1.12,4.27,0,.22-.12.45-.17.68s-.1.4.09.55a.54.54,0,0,0,.61,0,4.36,4.36,0,0,0,.55-.41s.06-.09.1-.12a.27.27,0,0,1,.36-.07.26.26,0,0,1,.11.34A3.09,3.09,0,0,1,9.34,15.71Z"/><path class="cls-3" d="M9.45,5.62A1.34,1.34,0,1,1,10.77,7,1.32,1.32,0,0,1,9.45,5.62Z"/></g></svg>