<svg xmlns="http://www.w3.org/2000/svg" viewBox="0 0 20 20"><defs><style>.cls-1{fill:none;stroke:#fff;stroke-miterlimit:10;stroke-width:1.64px;}.cls-2{fill:#fff;}</style></defs><g id="圖層_3" data-name="圖層 3"><path class="cls-1" d="M1.32,10A8.68,8.68,0,1,1,10,18.68,8.68,8.68,0,0,1,1.32,10Z"/><path class="cls-2" d="M9.05,11.56,9.49,11c1-1.34,2-2.67,3-4a1.17,1.17,0,0,1,1.81,0,.71.71,0,0,1,.06.86c-.24.34-.49.67-.74,1l-3.31,4.47a1.31,1.31,0,0,1-.8.58.89.89,0,0,1-.71-.12l-2.92-2a1.57,1.57,0,0,1-.38-.39.78.78,0,0,1,0-.92A1.11,1.11,0,0,1,6.76,10a5.54,5.54,0,0,1,.51.33L9,11.51Z"/></g></svg>