<svg xmlns="http://www.w3.org/2000/svg" viewBox="0 0 20 20"><g id="圖層_3" data-name="圖層 3"><path d="M.8,10.64A9.22,9.22,0,0,1,4.53,3.22,1.3,1.3,0,1,1,6.11,5.28a6.58,6.58,0,1,0,10.39,6.3,6.34,6.34,0,0,0-2.63-6.3,1.35,1.35,0,0,1-.63-1.42,1.3,1.3,0,0,1,2.07-.77,9.06,9.06,0,0,1,2.43,2.58A9.18,9.18,0,1,1,.91,11.91C.85,11.48.84,11,.8,10.64Z"/><path d="M11.31,5.46c0,1.27,0,2.54,0,3.82a1.31,1.31,0,0,1-2.58.35,1.55,1.55,0,0,1,0-.31c0-2.58,0-5.17,0-7.75A1.3,1.3,0,0,1,10.11.23a1.32,1.32,0,0,1,1.2,1.39C11.32,2.9,11.31,4.18,11.31,5.46Z"/></g></svg>