<svg xmlns="http://www.w3.org/2000/svg" xmlns:xlink="http://www.w3.org/1999/xlink" viewBox="0 0 20 20"><defs><style>.cls-1{fill:url(#未命名漸層_11);}.cls-2{fill:url(#未命名漸層_11-2);}</style><linearGradient id="未命名漸層_11" x1="1.27" y1="8.27" x2="18.73" y2="8.27" gradientUnits="userSpaceOnUse"><stop offset="0" stop-color="#70eeee"/><stop offset="0.23" stop-color="#52bbf1"/><stop offset="0.48" stop-color="#3588f5"/><stop offset="0.71" stop-color="#1f62f7"/><stop offset="0.89" stop-color="#124bf8"/><stop offset="1" stop-color="#0d43f9"/></linearGradient><linearGradient id="未命名漸層_11-2" x1="7.24" y1="18.55" x2="12.74" y2="18.55" xlink:href="#未命名漸層_11"/></defs><g id="圖層_2" data-name="圖層 2"><path class="cls-1" d="M10,16.44H2.11a.73.73,0,0,1-.56-1.3c.62-.67,1.23-1.37,1.85-2A2.13,2.13,0,0,0,4,11.61c0-1.09,0-2.17,0-3.26A5.71,5.71,0,0,1,5.31,4.64,5.85,5.85,0,0,1,8.64,2.58a.33.33,0,0,0,.3-.39c0-.34,0-.67,0-1A1.07,1.07,0,0,1,10,.1a1,1,0,0,1,1.1,1c0,.38,0,.76,0,1.15,0,.17,0,.28.23.33a6,6,0,0,1,4.3,3.7,6.3,6.3,0,0,1,.45,2.42c0,1,0,1.94,0,2.91a2.08,2.08,0,0,0,.57,1.52c.61.66,1.2,1.34,1.81,2a.79.79,0,0,1,.25.88.76.76,0,0,1-.8.44Z"/><path class="cls-2" d="M12.74,17.24a2.41,2.41,0,0,1-.62,1.67,2.66,2.66,0,0,1-2.55.95,2.7,2.7,0,0,1-2.24-2c-.18-.56-.11-.67.47-.67,1.54,0,3.08,0,4.62,0Z"/></g></svg>