<svg xmlns="http://www.w3.org/2000/svg" xmlns:xlink="http://www.w3.org/1999/xlink" viewBox="0 0 20 20"><defs><style>.cls-1{fill:url(#未命名漸層_11);}.cls-2{fill:#fff;}</style><linearGradient id="未命名漸層_11" x1="0.21" y1="10" x2="19.79" y2="10" gradientUnits="userSpaceOnUse"><stop offset="0" stop-color="#70eeee"/><stop offset="0.23" stop-color="#52bbf1"/><stop offset="0.48" stop-color="#3588f5"/><stop offset="0.71" stop-color="#1f62f7"/><stop offset="0.89" stop-color="#124bf8"/><stop offset="1" stop-color="#0d43f9"/></linearGradient></defs><g id="圖層_2" data-name="圖層 2"><path class="cls-1" d="M13.81,18.77c.42,0,.84,0,1.26,0a1.89,1.89,0,0,0,1.93-2c0-1.54,0-3.08,0-4.62v-.9c.67,0,1.28,0,1.88,0a1.21,1.21,0,0,0,.82-.33c.23-.32-.05-.62-.3-.88L11.55,2.18C10.27.91,9.68.9,8.4,2.17q-4,3.95-7.92,7.91c-.17.17-.33.56-.24.72a1,1,0,0,0,.71.4c.64.05,1.29,0,2,0v.67c0,1.6,0,3.2,0,4.8A1.91,1.91,0,0,0,5,18.77h8.77Z"/><path class="cls-2" d="M10,12.65H5.65a.73.73,0,1,1-.06-1.45h8.77a.73.73,0,0,1,.05,1.45H10Z"/><path class="cls-2" d="M10.73,11.93v4.34a.73.73,0,1,1-1.46.05V7.58a.71.71,0,0,1,.46-.7.73.73,0,0,1,1,.65v4.4Z"/></g></svg>