<svg xmlns="http://www.w3.org/2000/svg" viewBox="0 0 20 20"><defs><style>.cls-1{fill:none;stroke:#000;stroke-miterlimit:10;stroke-width:1.38px;}</style></defs><g id="圖層_2" data-name="圖層 2"><path class="cls-1" d="M19,10a9,9,0,1,1-9-9A9,9,0,0,1,19,10Z"/><path d="M9.34,15.72A1.4,1.4,0,0,1,7.89,14c.12-.66.31-1.3.47-1.95.22-.86.46-1.72.68-2.57.1-.41,0-.57-.46-.53-.13,0-.25,0-.38,0a.24.24,0,0,1-.28-.22.25.25,0,0,1,.22-.31c.3,0,.61-.08.91-.12l2-.23c.29,0,.43.13.36.42L10.3,12.79c-.06.23-.13.46-.18.69s-.1.4.09.55a.54.54,0,0,0,.61,0,3.57,3.57,0,0,0,.55-.41s.07-.09.11-.12.21-.16.35-.07a.25.25,0,0,1,.11.35A3.05,3.05,0,0,1,9.34,15.72Z"/><path d="M9.45,5.61A1.34,1.34,0,1,1,10.77,7,1.34,1.34,0,0,1,9.45,5.61Z"/></g></svg>