<svg xmlns="http://www.w3.org/2000/svg" xmlns:xlink="http://www.w3.org/1999/xlink" viewBox="0 0 20 20"><defs><style>.cls-1{stroke-miterlimit:10;stroke-width:0.49px;fill:url(#未命名漸層_11);stroke:url(#未命名漸層_11-2);}</style><linearGradient id="未命名漸層_11" x1="0.31" y1="10" x2="19.69" y2="10" gradientUnits="userSpaceOnUse"><stop offset="0" stop-color="#70eeee"/><stop offset="0.23" stop-color="#52bbf1"/><stop offset="0.48" stop-color="#3588f5"/><stop offset="0.71" stop-color="#1f62f7"/><stop offset="0.89" stop-color="#124bf8"/><stop offset="1" stop-color="#0d43f9"/></linearGradient><linearGradient id="未命名漸層_11-2" x1="0.06" x2="19.94" xlink:href="#未命名漸層_11"/></defs><g id="圖層_2" data-name="圖層 2"><path class="cls-1" d="M19.69,10A9.69,9.69,0,1,1,10,.31,9.68,9.68,0,0,1,19.69,10ZM5.62,5.39A9.84,9.84,0,0,0,4.48,9.63H9.64V6.3A11.2,11.2,0,0,1,5.62,5.39Zm-.08,9.18a11,11,0,0,1,4.09-1V10.39H4.47A10,10,0,0,0,5.54,14.57Zm4.84-4.93h5a9.68,9.68,0,0,0-1.06-4.09l-3.93.87Zm0,3.92c.7.12,1.38.19,2,.34s1.29.38,1.93.57a8.59,8.59,0,0,0,1-4.08h-5Zm4.54-8.4a11.13,11.13,0,0,1,1.18,4.47H19c.07-1.78-1.18-4.79-2.31-5.58ZM16.73,16A8.93,8.93,0,0,0,19,10.38H16.09A11,11,0,0,1,15,14.81ZM3.3,4A8.94,8.94,0,0,0,1,9.64H3.76A11,11,0,0,1,5,5.11Zm0,11.9,1.63-1.07a11,11,0,0,1-1.13-4.48H1A9,9,0,0,0,3.25,15.93Zm6.39,2.9v-4.5a9.71,9.71,0,0,0-3.74.88A9.92,9.92,0,0,0,9.64,18.83Zm0-17.56A9.78,9.78,0,0,0,6,4.76a9.69,9.69,0,0,0,3.65.82ZM14,15.19a8,8,0,0,0-3.6-.8v4.35A10,10,0,0,0,14,15.19ZM10.37,5.54a7.53,7.53,0,0,0,3.5-.8,9.87,9.87,0,0,0-3.5-3.38Zm1.11-4.37a11.8,11.8,0,0,1,3.09,3.35l1.61-1A8.69,8.69,0,0,0,11.48,1.17Zm4.75,15.3-1.58-1a12,12,0,0,1-3,3.34A8.73,8.73,0,0,0,16.23,16.47ZM5.31,4.47a12,12,0,0,1,3-3.25A8.57,8.57,0,0,0,3.8,3.51Zm-.09,11-1.43.93a7.91,7.91,0,0,0,4.34,2.3A11.24,11.24,0,0,1,5.22,15.49Z"/></g></svg>